<svg width="287" height="51" viewBox="0 0 287 51" fill="none" xmlns="http://www.w3.org/2000/svg">
<path d="M24.92 37.8C24.136 38.1733 22.9973 38.6027 21.504 39.088C20.0107 39.5733 17.976 39.816 15.4 39.816C12.6373 39.816 10.2853 39.4613 8.344 38.752C6.40267 38.0427 4.816 37.0347 3.584 35.728C2.352 34.384 1.43733 32.7973 0.84 30.968C0.28 29.1013 0 27.0107 0 24.696C0 22.456 0.317333 20.44 0.952 18.648C1.58667 16.856 2.52 15.3253 3.752 14.056C5.02133 12.7493 6.608 11.76 8.512 11.088C10.416 10.3787 12.6373 10.024 15.176 10.024C17.64 10.024 19.6 10.248 21.056 10.696C22.512 11.1067 23.632 11.4613 24.416 11.76L23.072 17.696C22.3253 17.4347 21.4293 17.1733 20.384 16.912C19.376 16.6507 18.0693 16.52 16.464 16.52C13.776 16.52 11.6853 17.136 10.192 18.368C8.69867 19.6 7.952 21.616 7.952 24.416C7.952 30.3147 11.1253 33.264 17.472 33.264C18.5547 33.264 19.6373 33.152 20.72 32.928C21.8027 32.704 22.7733 32.3867 23.632 31.976L24.92 37.8Z" fill="#025EA1"/>
<path d="M54.3813 37.296C54.0079 37.5573 53.4853 37.8373 52.8133 38.136C52.1413 38.4347 51.3386 38.7147 50.4053 38.976C49.5093 39.2 48.4826 39.3867 47.3253 39.536C46.2053 39.7227 44.9919 39.816 43.6852 39.816C38.1599 39.816 34.1279 38.5093 31.5893 35.896C29.0506 33.2453 27.7812 29.4747 27.7812 24.584C27.7812 22.344 28.0986 20.328 28.7332 18.536C29.4053 16.744 30.3573 15.2133 31.5893 13.944C32.8213 12.6747 34.3146 11.704 36.0693 11.032C37.8613 10.36 39.8959 10.024 42.1733 10.024C44.7119 10.024 46.8399 10.416 48.5573 11.2C50.3119 11.9467 51.7306 12.9733 52.8133 14.28C53.8959 15.5867 54.6613 17.136 55.1093 18.928C55.5946 20.6827 55.8372 22.568 55.8372 24.584V26.656H35.6213C35.9199 29.0453 36.7786 30.8187 38.1973 31.976C39.6159 33.096 41.7439 33.656 44.5813 33.656C46.6719 33.656 48.3706 33.4693 49.6772 33.096C51.0213 32.6853 52.1786 32.2187 53.1493 31.696L54.3813 37.296ZM48.1092 22.064C48.1466 20.3093 47.6799 18.8533 46.7093 17.696C45.7759 16.5387 44.3013 15.96 42.2853 15.96C38.4026 15.96 36.1999 17.9947 35.6772 22.064H48.1092Z" fill="#025EA1"/>
<path d="M68.6241 22.008H70.6401L79.1521 10.64H87.4401L77.2481 23.184C78.1814 23.4453 78.9841 23.968 79.6561 24.752C80.3654 25.536 81.0934 26.6 81.8401 27.944C82.6241 29.288 83.4827 30.912 84.4161 32.816C85.3867 34.6827 86.5814 36.8107 88.0001 39.2H79.6561C78.3121 36.848 77.3041 34.9253 76.6321 33.432C75.9601 31.9387 75.3814 30.7813 74.8961 29.96C74.4481 29.1387 73.9441 28.5787 73.3841 28.28C72.8614 27.9813 72.0774 27.832 71.0321 27.832H68.6241V39.2H61.0081V10.64H68.6241V22.008Z" fill="#025EA1"/>
<path d="M99.085 50.96H91.469V10.64H98.861V14.672H98.973C100.093 12.992 101.512 11.816 103.229 11.144C104.984 10.472 106.757 10.136 108.549 10.136C116.8 10.136 120.925 14.9893 120.925 24.696C120.925 26.824 120.664 28.8027 120.141 30.632C119.618 32.4613 118.834 34.048 117.789 35.392C116.744 36.736 115.437 37.8 113.869 38.584C112.301 39.3307 110.453 39.704 108.325 39.704C106.272 39.704 104.442 39.3307 102.837 38.584C101.269 37.8 100.056 36.8107 99.197 35.616H99.085V50.96ZM106.141 33.432C108.493 33.432 110.21 32.6853 111.293 31.192C112.376 29.6987 112.917 27.496 112.917 24.584C112.917 21.8213 112.376 19.768 111.293 18.424C110.21 17.08 108.437 16.408 105.973 16.408C103.696 16.408 101.978 17.192 100.821 18.76C99.6637 20.2907 99.085 22.4 99.085 25.088C99.085 27.664 99.6823 29.6987 100.877 31.192C102.072 32.6853 103.826 33.432 106.141 33.432Z" fill="#025EA1"/>
<path d="M151.561 37.296C151.188 37.5573 150.665 37.8373 149.993 38.136C149.321 38.4347 148.518 38.7147 147.585 38.976C146.689 39.2 145.662 39.3867 144.505 39.536C143.385 39.7227 142.172 39.816 140.865 39.816C135.34 39.816 131.308 38.5093 128.769 35.896C126.23 33.2453 124.961 29.4747 124.961 24.584C124.961 22.344 125.278 20.328 125.913 18.536C126.585 16.744 127.537 15.2133 128.769 13.944C130.001 12.6747 131.494 11.704 133.249 11.032C135.041 10.36 137.076 10.024 139.353 10.024C141.892 10.024 144.02 10.416 145.737 11.2C147.492 11.9467 148.91 12.9733 149.993 14.28C151.076 15.5867 151.841 17.136 152.289 18.928C152.774 20.6827 153.017 22.568 153.017 24.584V26.656H132.801C133.1 29.0453 133.958 30.8187 135.377 31.976C136.796 33.096 138.924 33.656 141.761 33.656C143.852 33.656 145.55 33.4693 146.857 33.096C148.201 32.6853 149.358 32.2187 150.329 31.696L151.561 37.296ZM145.289 22.064C145.326 20.3093 144.86 18.8533 143.889 17.696C142.956 16.5387 141.481 15.96 139.465 15.96C135.582 15.96 133.38 17.9947 132.857 22.064H145.289Z" fill="#025EA1"/>
<path d="M175.268 39.2H166.868V7.728H155.724V0H186.356V7.728H175.268V39.2Z" fill="#FF4A05"/>
<path d="M209.864 30.576H194.8L192 39.2H183.712L197.096 0H208.016L221.232 39.2H212.664L209.864 30.576ZM197.096 23.24H207.568L202.36 6.776L197.096 23.24Z" fill="#FF4A05"/>
<path d="M235.332 19.544H239.924C242.463 19.544 244.441 19.0587 245.86 18.088C247.279 17.08 247.988 15.5307 247.988 13.44C247.988 11.2373 247.297 9.688 245.916 8.792C244.535 7.85867 242.556 7.392 239.98 7.392H235.332V19.544ZM235.5 39.2H227.1V0H240.596C243.06 0 245.281 0.261333 247.26 0.784C249.239 1.30667 250.919 2.10933 252.3 3.192C253.719 4.23734 254.801 5.6 255.548 7.28C256.295 8.92267 256.668 10.864 256.668 13.104C256.668 15.3067 256.276 17.2667 255.492 18.984C254.745 20.7013 253.644 22.1573 252.188 23.352C250.732 24.5093 248.959 25.4053 246.868 26.04C244.777 26.6373 242.425 26.936 239.812 26.936H235.5V39.2Z" fill="#FF4A05"/>
<path d="M268.508 33.264H273.1C274.892 33.264 276.161 32.928 276.908 32.256C277.692 31.584 278.084 30.576 278.084 29.232C278.084 27.8133 277.636 26.824 276.74 26.264C275.881 25.704 274.575 25.424 272.82 25.424H268.508V33.264ZM261.004 39.2V10.64H268.62V19.488H273.772C278.14 19.488 281.276 20.3653 283.18 22.12C285.121 23.8747 286.092 26.264 286.092 29.288C286.092 30.744 285.831 32.088 285.308 33.32C284.785 34.5147 284.039 35.56 283.068 36.456C282.097 37.3147 280.884 37.9867 279.428 38.472C277.972 38.9573 276.329 39.2 274.5 39.2H261.004Z" fill="#025EA1"/>
</svg>
