<svg width="315" height="26" viewBox="0 0 315 26" fill="none" xmlns="http://www.w3.org/2000/svg">
<path d="M306 22C304.75 22 303.579 21.7625 302.488 21.2875C301.396 20.8125 300.446 20.1708 299.638 19.3625C298.829 18.5542 298.188 17.6042 297.713 16.5125C297.238 15.4208 297 14.25 297 13C297 11.75 297.238 10.5792 297.713 9.4875C298.188 8.39583 298.829 7.44583 299.638 6.6375C300.446 5.82917 301.396 5.1875 302.488 4.7125C303.579 4.2375 304.75 4 306 4C307.367 4 308.662 4.29167 309.887 4.875C311.113 5.45833 312.15 6.28333 313 7.35V5H315V11H309V9H311.75C311.067 8.06667 310.225 7.33333 309.225 6.8C308.225 6.26667 307.15 6 306 6C304.05 6 302.396 6.67917 301.037 8.0375C299.679 9.39583 299 11.05 299 13C299 14.95 299.679 16.6042 301.037 17.9625C302.396 19.3208 304.05 20 306 20C307.75 20 309.279 19.4333 310.588 18.3C311.896 17.1667 312.667 15.7333 312.9 14H314.95C314.7 16.2833 313.721 18.1875 312.012 19.7125C310.304 21.2375 308.3 22 306 22Z" fill="#B0B1B2"/>
<path d="M219.994 13L215.797 8.80269C215.599 8.60538 215.501 8.35426 215.501 8.04933C215.501 7.74439 215.599 7.49327 215.797 7.29596C215.994 7.09865 216.245 7 216.55 7C216.855 7 217.106 7.09865 217.303 7.29596L222.254 12.2466C222.362 12.3543 222.438 12.4709 222.483 12.5964C222.528 12.722 222.55 12.8565 222.55 13C222.55 13.1435 222.528 13.278 222.483 13.4036C222.438 13.5291 222.362 13.6457 222.254 13.7534L217.303 18.704C217.106 18.9013 216.855 19 216.55 19C216.245 19 215.994 18.9013 215.797 18.704C215.599 18.5067 215.501 18.2556 215.501 17.9507C215.501 17.6457 215.599 17.3946 215.797 17.1973L219.994 13Z" fill="#B0B1B2"/>
<line x1="200.5" y1="19.5" x2="200.5" y2="7.5" stroke="#B0B1B2" stroke-linecap="round"/>
<path d="M160.053 16V9.37H160.833V14.102L160.807 14.895H160.82L161.236 14.232L164.655 9.37H165.396V16H164.616V11.177L164.642 10.475H164.629L164.226 11.112L160.794 16H160.053ZM170.157 12.516C170.703 12.5853 171.123 12.763 171.418 13.049C171.713 13.3263 171.86 13.6947 171.86 14.154C171.86 14.7693 171.613 15.2503 171.119 15.597C170.625 15.935 169.949 16.104 169.091 16.104C168.736 16.104 168.38 16.0737 168.025 16.013C167.678 15.961 167.293 15.8353 166.868 15.636L167.05 14.934C167.353 15.0727 167.683 15.1853 168.038 15.272C168.393 15.3587 168.723 15.402 169.026 15.402C169.737 15.402 170.248 15.2807 170.56 15.038C170.872 14.7953 171.028 14.492 171.028 14.128C171.028 13.7467 170.872 13.4433 170.56 13.218C170.257 12.9927 169.75 12.88 169.039 12.88H168.246V12.23H169.143C169.36 12.23 169.568 12.204 169.767 12.152C169.966 12.1 170.14 12.0263 170.287 11.931C170.443 11.827 170.564 11.7057 170.651 11.567C170.746 11.4283 170.794 11.268 170.794 11.086C170.794 10.3407 170.187 9.968 168.974 9.968C168.731 9.968 168.454 9.99833 168.142 10.059C167.839 10.111 167.54 10.1977 167.245 10.319L167.05 9.656C167.405 9.51733 167.748 9.41767 168.077 9.357C168.415 9.29633 168.757 9.266 169.104 9.266C169.572 9.266 169.962 9.30933 170.274 9.396C170.595 9.474 170.855 9.58667 171.054 9.734C171.253 9.88133 171.396 10.0677 171.483 10.293C171.57 10.5097 171.613 10.7523 171.613 11.021C171.613 11.411 171.47 11.736 171.184 11.996C170.898 12.256 170.556 12.4207 170.157 12.49V12.516ZM181.86 16H176.283V15.194L178.09 13.517C178.515 13.127 178.896 12.763 179.234 12.425C179.572 12.0783 179.863 11.7447 180.105 11.424C180.348 11.1033 180.534 10.787 180.664 10.475C180.794 10.1543 180.859 9.825 180.859 9.487C180.859 9.14033 180.803 8.84567 180.69 8.603C180.586 8.36033 180.439 8.16533 180.248 8.018C180.058 7.862 179.837 7.74933 179.585 7.68C179.334 7.61067 179.061 7.576 178.766 7.576C178.324 7.576 177.926 7.63667 177.57 7.758C177.224 7.87067 176.912 8.01367 176.634 8.187V7.303C177.05 7.10367 177.453 6.965 177.843 6.887C178.233 6.809 178.58 6.77 178.883 6.77C179.282 6.77 179.655 6.822 180.001 6.926C180.357 7.03 180.66 7.186 180.911 7.394C181.163 7.602 181.362 7.86633 181.509 8.187C181.657 8.50767 181.73 8.88033 181.73 9.305C181.73 9.78167 181.639 10.2323 181.457 10.657C181.284 11.073 181.037 11.4847 180.716 11.892C180.404 12.2907 180.032 12.6937 179.598 13.101C179.165 13.5083 178.693 13.933 178.181 14.375L177.271 15.22V15.233H181.86V16Z" fill="black"/>
<rect x="110.5" y="0.5" width="40" height="25" fill="white" stroke="#B0B1B2"/>
<path d="M123.407 16H122.588V7.914L120.898 8.993L120.482 8.382L122.757 6.9H123.407V16Z" fill="black"/>
<path d="M52.046 15.753C51.7947 15.8917 51.487 15.987 51.123 16.039C50.7677 16.0997 50.382 16.13 49.966 16.13C49.2987 16.13 48.705 16.026 48.185 15.818C47.6737 15.6013 47.2403 15.2937 46.885 14.895C46.5297 14.4963 46.2567 14.0153 46.066 13.452C45.884 12.8887 45.793 12.2603 45.793 11.567C45.793 10.839 45.884 10.1803 46.066 9.591C46.2567 8.993 46.5297 8.486 46.885 8.07C47.249 7.654 47.6997 7.33333 48.237 7.108C48.7743 6.88267 49.394 6.77 50.096 6.77C50.512 6.77 50.876 6.80033 51.188 6.861C51.5 6.92167 51.7817 6.991 52.033 7.069L51.851 7.797C51.5737 7.71033 51.279 7.64533 50.967 7.602C50.655 7.55867 50.3863 7.537 50.161 7.537C49.563 7.537 49.043 7.63233 48.601 7.823C48.1677 8.005 47.808 8.26933 47.522 8.616C47.236 8.954 47.0237 9.36567 46.885 9.851C46.7463 10.3363 46.677 10.8737 46.677 11.463C46.677 12.0523 46.7507 12.5897 46.898 13.075C47.0453 13.5517 47.2663 13.959 47.561 14.297C47.8557 14.635 48.2197 14.8993 48.653 15.09C49.0863 15.272 49.589 15.363 50.161 15.363C50.4297 15.363 50.707 15.3413 50.993 15.298C51.279 15.246 51.5693 15.1593 51.864 15.038L52.046 15.753ZM55.4219 16H54.6419V10.072H52.3019V9.37H57.7619V10.072H55.4219V16ZM59.6807 18.73H58.9007V9.37H59.6417V10.657H59.6677C59.8063 10.3797 59.9667 10.1543 60.1487 9.981C60.3393 9.799 60.5387 9.656 60.7467 9.552C60.9547 9.448 61.167 9.37433 61.3837 9.331C61.6003 9.28767 61.804 9.266 61.9947 9.266C62.4627 9.266 62.87 9.344 63.2167 9.5C63.5633 9.656 63.8493 9.88133 64.0747 10.176C64.3087 10.462 64.482 10.813 64.5947 11.229C64.7073 11.6363 64.7637 12.0957 64.7637 12.607C64.7637 13.1097 64.703 13.5733 64.5817 13.998C64.469 14.4227 64.2957 14.791 64.0617 15.103C63.8277 15.415 63.5373 15.662 63.1907 15.844C62.8527 16.0173 62.4583 16.104 62.0077 16.104C61.5137 16.104 61.0587 15.9913 60.6427 15.766C60.2267 15.5407 59.9103 15.194 59.6937 14.726H59.6807V18.73ZM61.8387 15.402C62.2027 15.402 62.5147 15.337 62.7747 15.207C63.0433 15.0683 63.26 14.8777 63.4247 14.635C63.598 14.3837 63.7237 14.0847 63.8017 13.738C63.8883 13.3913 63.9317 13.01 63.9317 12.594C63.9317 12.1953 63.8927 11.8357 63.8147 11.515C63.7453 11.1943 63.6283 10.9213 63.4637 10.696C63.299 10.462 63.0823 10.2843 62.8137 10.163C62.5537 10.033 62.233 9.968 61.8517 9.968C61.1323 9.968 60.5907 10.2107 60.2267 10.696C59.8627 11.1727 59.6807 11.84 59.6807 12.698C59.6807 13.062 59.7197 13.4087 59.7977 13.738C59.8843 14.0587 60.0143 14.3447 60.1877 14.596C60.361 14.8387 60.582 15.0337 60.8507 15.181C61.128 15.3283 61.4573 15.402 61.8387 15.402ZM70.1458 12.529C69.7124 12.5723 69.2921 12.6243 68.8848 12.685C68.4861 12.737 68.1308 12.8237 67.8188 12.945C67.5068 13.0663 67.2554 13.2353 67.0648 13.452C66.8828 13.66 66.7918 13.9373 66.7918 14.284C66.7918 14.6047 66.8958 14.8733 67.1038 15.09C67.3204 15.298 67.6584 15.402 68.1178 15.402C68.3951 15.402 68.6551 15.35 68.8978 15.246C69.1491 15.142 69.3658 14.9947 69.5478 14.804C69.7298 14.6133 69.8728 14.3837 69.9768 14.115C70.0894 13.8463 70.1458 13.543 70.1458 13.205V12.529ZM70.9128 16H70.2238V14.609H70.1978C69.9984 15.0597 69.6994 15.4237 69.3008 15.701C68.9021 15.9697 68.4428 16.104 67.9228 16.104C67.2988 16.104 66.8178 15.948 66.4798 15.636C66.1418 15.3153 65.9728 14.869 65.9728 14.297C65.9728 13.8117 66.0984 13.426 66.3498 13.14C66.6011 12.8453 66.9261 12.62 67.3248 12.464C67.7234 12.2993 68.1698 12.1867 68.6638 12.126C69.1664 12.0567 69.6604 12.0003 70.1458 11.957V11.593C70.1458 11.021 70.0114 10.6093 69.7428 10.358C69.4741 10.098 69.0451 9.968 68.4558 9.968C68.1264 9.968 67.8144 10.0027 67.5198 10.072C67.2251 10.1413 66.9391 10.2367 66.6618 10.358L66.4148 9.747C66.7181 9.59967 67.0431 9.48267 67.3898 9.396C67.7451 9.30933 68.1308 9.266 68.5468 9.266C69.0061 9.266 69.3874 9.318 69.6908 9.422C69.9941 9.51733 70.2368 9.669 70.4188 9.877C70.6008 10.085 70.7264 10.3493 70.7958 10.67C70.8738 10.982 70.9128 11.3503 70.9128 11.775V16ZM78.2454 16H77.4784V12.932H73.7344V16H72.9544V9.37H73.7344V12.23H77.4784V9.37H78.2454V16ZM80.3557 16V9.37H81.1357V14.102L81.1097 14.895H81.1227L81.5387 14.232L84.9577 9.37H85.6987V16H84.9187V11.177L84.9447 10.475H84.9317L84.5287 11.112L81.0967 16H80.3557ZM93.8399 17.872H93.0989V16H87.8079V9.37H88.5879V15.298H92.1109V9.37H92.8909V15.298H93.8399V17.872ZM98.9387 12.529C98.5054 12.5723 98.0851 12.6243 97.6777 12.685C97.2791 12.737 96.9237 12.8237 96.6117 12.945C96.2997 13.0663 96.0484 13.2353 95.8577 13.452C95.6757 13.66 95.5847 13.9373 95.5847 14.284C95.5847 14.6047 95.6887 14.8733 95.8967 15.09C96.1134 15.298 96.4514 15.402 96.9107 15.402C97.1881 15.402 97.4481 15.35 97.6907 15.246C97.9421 15.142 98.1587 14.9947 98.3407 14.804C98.5227 14.6133 98.6657 14.3837 98.7697 14.115C98.8824 13.8463 98.9387 13.543 98.9387 13.205V12.529ZM99.7057 16H99.0167V14.609H98.9907C98.7914 15.0597 98.4924 15.4237 98.0937 15.701C97.6951 15.9697 97.2357 16.104 96.7157 16.104C96.0917 16.104 95.6107 15.948 95.2727 15.636C94.9347 15.3153 94.7657 14.869 94.7657 14.297C94.7657 13.8117 94.8914 13.426 95.1427 13.14C95.3941 12.8453 95.7191 12.62 96.1177 12.464C96.5164 12.2993 96.9627 12.1867 97.4567 12.126C97.9594 12.0567 98.4534 12.0003 98.9387 11.957V11.593C98.9387 11.021 98.8044 10.6093 98.5357 10.358C98.2671 10.098 97.8381 9.968 97.2487 9.968C96.9194 9.968 96.6074 10.0027 96.3127 10.072C96.0181 10.1413 95.7321 10.2367 95.4547 10.358L95.2077 9.747C95.5111 9.59967 95.8361 9.48267 96.1827 9.396C96.5381 9.30933 96.9237 9.266 97.3397 9.266C97.7991 9.266 98.1804 9.318 98.4837 9.422C98.7871 9.51733 99.0297 9.669 99.2117 9.877C99.3937 10.085 99.5194 10.3493 99.5887 10.67C99.6667 10.982 99.7057 11.3503 99.7057 11.775V16Z" fill="black"/>
<line x1="27.5" y1="19.5" x2="27.5" y2="7.5" stroke="#B0B1B2" stroke-linecap="round"/>
<path d="M2.375 13.5L6.275 17.3475C6.45833 17.5284 6.55 17.7586 6.55 18.0381C6.55 18.3176 6.45833 18.5478 6.275 18.7287C6.09167 18.9096 5.85833 19 5.575 19C5.29167 19 5.05833 18.9096 4.875 18.7287L0.275 14.1906C0.175 14.0919 0.104167 13.9851 0.0625 13.87C0.0208335 13.7549 0 13.6315 0 13.5C0 13.3685 0.0208335 13.2451 0.0625 13.13C0.104167 13.0149 0.175 12.9081 0.275 12.8094L4.875 8.2713C5.05833 8.09043 5.29167 8 5.575 8C5.85833 8 6.09167 8.09043 6.275 8.2713C6.45833 8.45217 6.55 8.68236 6.55 8.96188C6.55 9.24141 6.45833 9.4716 6.275 9.65247L2.375 13.5Z" fill="#B0B1B2"/>
</svg>
