<svg width="40" height="40" viewBox="0 0 40 40" fill="none" xmlns="http://www.w3.org/2000/svg">
<path d="M19.9954 39.9908C31.0386 39.9908 39.9908 31.0385 39.9908 19.9954C39.9908 8.95224 31.0386 0 19.9954 0C8.95226 0 0 8.95224 0 19.9954C0 31.0385 8.95226 39.9908 19.9954 39.9908Z" fill="#6CACE4"/>
<path fill-rule="evenodd" clip-rule="evenodd" d="M19.9954 9.70284C20.6957 9.70284 21.3776 9.77655 22.0318 9.90555C21.6079 11.4904 21.8567 12.891 22.7413 13.3333C23.6628 13.7941 24.9989 13.0569 26.0217 11.6563C27.0076 12.3658 27.8553 13.2412 28.5372 14.2456C27.1458 15.4158 26.4732 16.8625 27.0353 17.7655C27.5144 18.5395 28.7584 18.7054 30.159 18.2815C30.2511 18.8436 30.3064 19.4149 30.3064 20.0046C30.3064 20.7694 30.2235 21.525 30.0576 22.2437C28.6294 21.8936 27.3854 22.1239 26.9523 22.9256C26.4916 23.7825 27.0813 25.0449 28.3069 26.0862C27.6158 27.0352 26.7588 27.8553 25.7913 28.5188C24.8238 27.3854 23.6628 26.8417 22.8335 27.2472C22.0594 27.6342 21.7738 28.7584 22.0042 30.1037C21.3591 30.2327 20.6865 30.2972 19.9954 30.2972C19.3412 30.2972 18.6961 30.2327 18.0696 30.1221C18.2999 28.7676 18.0235 27.6342 17.2403 27.2472C16.4017 26.8325 15.2315 27.3946 14.2548 28.5556C13.2043 27.8553 12.3013 26.9615 11.5734 25.9295C12.7989 24.8883 13.3886 23.6259 12.9279 22.7689C12.504 21.9765 11.2969 21.7461 9.90554 22.0686C9.76732 21.396 9.6936 20.7049 9.6936 19.9954C9.6936 19.3412 9.75811 18.6962 9.86868 18.0788C11.2601 18.4934 12.4948 18.3368 12.974 17.5628C13.5176 16.6782 12.891 15.2592 11.5457 14.1073C12.1907 13.1767 12.9924 12.3658 13.9046 11.6932C14.9274 13.0753 16.2451 13.7848 17.1481 13.3333C18.0327 12.9003 18.2723 11.5089 17.8576 9.92398C18.5487 9.77655 19.2582 9.70284 19.9862 9.70284H19.9954ZM19.9954 16.6413C21.8475 16.6413 23.3587 18.1433 23.3587 20.0046C23.3587 21.8567 21.8567 23.3679 19.9954 23.3679C18.1433 23.3679 16.6321 21.8659 16.6321 20.0046C16.6321 18.1525 18.1341 16.6413 19.9954 16.6413Z" fill="white"/>
</svg>
