<svg width="40" height="40" viewBox="0 0 40 40" fill="none" xmlns="http://www.w3.org/2000/svg">
<path d="M20 40C31.0457 40 40 31.0457 40 20C40 8.9543 31.0457 0 20 0C8.9543 0 0 8.9543 0 20C0 31.0457 8.9543 40 20 40Z" fill="#6CACE4"/>
<path d="M15.1815 15.2528C15.0688 15.8815 14.467 16.3003 13.8383 16.1876C13.2096 16.0749 12.7908 15.4741 12.9035 14.8444C13.6387 10.7993 17.5163 8.51722 21.4456 9.23276C21.6358 9.26688 21.8064 9.30307 21.9584 9.34133C23.3647 9.69083 24.6169 10.456 25.5403 11.5862C26.3933 12.6305 26.9569 13.9768 27.0882 15.5785C27.1554 16.3923 27.0954 17.2133 26.9145 18.0023C26.7346 18.784 26.4326 19.5347 26.0108 20.2182C25.3397 21.307 24.3729 22.1497 23.2654 22.7298C22.4527 23.1558 21.5614 23.4402 20.6545 23.5746V26.019C20.6545 26.6601 20.1344 27.1802 19.4933 27.1802C18.8522 27.1802 18.3321 26.6601 18.3321 26.019V22.5096H18.3373C18.3373 21.8747 18.8491 21.3577 19.4851 21.3525C20.4177 21.3442 21.3649 21.1147 22.1963 20.6793C22.949 20.2854 23.5994 19.7218 24.043 19.0022C24.3263 18.5431 24.5311 18.0292 24.6562 17.4853C24.7834 16.9331 24.8237 16.3489 24.7751 15.7605C24.6841 14.6521 24.3098 13.74 23.7442 13.0483C23.1486 12.3193 22.3307 11.8219 21.4063 11.5924C21.2636 11.5572 21.1405 11.5303 21.0392 11.5117C18.3725 11.0268 15.6881 12.4754 15.1825 15.2549L15.1815 15.2528Z" fill="#FEFEFE"/>
<path d="M19.6164 30.8986C20.2549 30.8986 20.7725 30.381 20.7725 29.7425C20.7725 29.1041 20.2549 28.5865 19.6164 28.5865C18.978 28.5865 18.4604 29.1041 18.4604 29.7425C18.4604 30.381 18.978 30.8986 19.6164 30.8986Z" fill="#FEFEFE"/>
</svg>
