<svg width="127" height="23" viewBox="0 0 127 23" fill="none" xmlns="http://www.w3.org/2000/svg">
<rect width="127" height="23" rx="8" fill="#FFFEFE"/>
<path d="M17.0254 17H16.1994V13.696H12.1674V17H11.3274V9.86H12.1674V12.94H16.1994V9.86H17.0254V17ZM23.2461 13.262C22.7794 13.3087 22.3267 13.3647 21.8881 13.43C21.4587 13.486 21.0761 13.5793 20.7401 13.71C20.4041 13.8407 20.1334 14.0227 19.9281 14.256C19.7321 14.48 19.6341 14.7787 19.6341 15.152C19.6341 15.4973 19.7461 15.7867 19.9701 16.02C20.2034 16.244 20.5674 16.356 21.0621 16.356C21.3607 16.356 21.6407 16.3 21.9021 16.188C22.1727 16.076 22.4061 15.9173 22.6021 15.712C22.7981 15.5067 22.9521 15.2593 23.0641 14.97C23.1854 14.6807 23.2461 14.354 23.2461 13.99V13.262ZM24.0721 17H23.3301V15.502H23.3021C23.0874 15.9873 22.7654 16.3793 22.3361 16.678C21.9067 16.9673 21.4121 17.112 20.8521 17.112C20.1801 17.112 19.6621 16.944 19.2981 16.608C18.9341 16.2627 18.7521 15.782 18.7521 15.166C18.7521 14.6433 18.8874 14.228 19.1581 13.92C19.4287 13.6027 19.7787 13.36 20.2081 13.192C20.6374 13.0147 21.1181 12.8933 21.6501 12.828C22.1914 12.7533 22.7234 12.6927 23.2461 12.646V12.254C23.2461 11.638 23.1014 11.1947 22.8121 10.924C22.5227 10.644 22.0607 10.504 21.4261 10.504C21.0714 10.504 20.7354 10.5413 20.4181 10.616C20.1007 10.6907 19.7927 10.7933 19.4941 10.924L19.2281 10.266C19.5547 10.1073 19.9047 9.98133 20.2781 9.888C20.6607 9.79467 21.0761 9.748 21.5241 9.748C22.0187 9.748 22.4294 9.804 22.7561 9.916C23.0827 10.0187 23.3441 10.182 23.5401 10.406C23.7361 10.63 23.8714 10.9147 23.9461 11.26C24.0301 11.596 24.0721 11.9927 24.0721 12.45V17ZM31.1147 17H30.2887V14.06C30.1767 14.088 29.9387 14.144 29.5747 14.228C29.2201 14.3027 28.8187 14.34 28.3707 14.34C28.0441 14.34 27.7267 14.3073 27.4187 14.242C27.1201 14.1767 26.8541 14.0647 26.6207 13.906C26.3874 13.738 26.2007 13.5233 26.0607 13.262C25.9207 12.9913 25.8507 12.6553 25.8507 12.254V9.86H26.6907V11.988C26.6907 12.296 26.7374 12.5527 26.8307 12.758C26.9241 12.9633 27.0547 13.1267 27.2227 13.248C27.3907 13.3693 27.5914 13.458 27.8247 13.514C28.0581 13.5607 28.3101 13.584 28.5807 13.584C28.9727 13.584 29.3134 13.556 29.6027 13.5C29.8921 13.4347 30.1207 13.374 30.2887 13.318V9.86H31.1147V17ZM37.3281 13.262C36.8614 13.3087 36.4088 13.3647 35.9701 13.43C35.5408 13.486 35.1581 13.5793 34.8221 13.71C34.4861 13.8407 34.2154 14.0227 34.0101 14.256C33.8141 14.48 33.7161 14.7787 33.7161 15.152C33.7161 15.4973 33.8281 15.7867 34.0521 16.02C34.2854 16.244 34.6494 16.356 35.1441 16.356C35.4428 16.356 35.7228 16.3 35.9841 16.188C36.2548 16.076 36.4881 15.9173 36.6841 15.712C36.8801 15.5067 37.0341 15.2593 37.1461 14.97C37.2674 14.6807 37.3281 14.354 37.3281 13.99V13.262ZM38.1541 17H37.4121V15.502H37.3841C37.1694 15.9873 36.8474 16.3793 36.4181 16.678C35.9888 16.9673 35.4941 17.112 34.9341 17.112C34.2621 17.112 33.7441 16.944 33.3801 16.608C33.0161 16.2627 32.8341 15.782 32.8341 15.166C32.8341 14.6433 32.9694 14.228 33.2401 13.92C33.5108 13.6027 33.8608 13.36 34.2901 13.192C34.7194 13.0147 35.2001 12.8933 35.7321 12.828C36.2734 12.7533 36.8054 12.6927 37.3281 12.646V12.254C37.3281 11.638 37.1834 11.1947 36.8941 10.924C36.6048 10.644 36.1428 10.504 35.5081 10.504C35.1534 10.504 34.8174 10.5413 34.5001 10.616C34.1828 10.6907 33.8748 10.7933 33.5761 10.924L33.3101 10.266C33.6368 10.1073 33.9868 9.98133 34.3601 9.888C34.7428 9.79467 35.1581 9.748 35.6061 9.748C36.1008 9.748 36.5114 9.804 36.8381 9.916C37.1648 10.0187 37.4261 10.182 37.6221 10.406C37.8181 10.63 37.9534 10.9147 38.0281 11.26C38.1121 11.596 38.1541 11.9927 38.1541 12.45V17ZM40.0308 17.112C39.9374 17.112 39.8534 17.1027 39.7788 17.084C39.7134 17.0747 39.6481 17.0607 39.5828 17.042V16.244C39.6574 16.2627 39.7088 16.2767 39.7368 16.286C39.7741 16.2953 39.8208 16.3 39.8768 16.3C40.3808 16.3 40.7354 15.8333 40.9408 14.9C41.1554 13.9573 41.2628 12.4687 41.2628 10.434V9.86H45.8688V17H45.0428V10.616H42.0468V11.008C42.0468 12.1 42.0094 13.0333 41.9348 13.808C41.8601 14.5827 41.7388 15.2173 41.5708 15.712C41.4121 16.1973 41.2021 16.552 40.9408 16.776C40.6888 17 40.3854 17.112 40.0308 17.112ZM50.946 16.356C51.6834 16.356 52.2574 16.1133 52.668 15.628C53.0787 15.1427 53.284 14.41 53.284 13.43C53.284 12.478 53.0974 11.7547 52.724 11.26C52.36 10.756 51.7674 10.504 50.946 10.504C50.218 10.504 49.644 10.7467 49.224 11.232C48.8134 11.7173 48.608 12.45 48.608 13.43C48.608 14.438 48.8227 15.18 49.252 15.656C49.6814 16.1227 50.246 16.356 50.946 16.356ZM50.946 17.112C49.9007 17.112 49.098 16.7993 48.538 16.174C47.9874 15.5393 47.712 14.6247 47.712 13.43C47.712 12.2727 47.9967 11.372 48.566 10.728C49.1354 10.0747 49.9287 9.748 50.946 9.748C51.9914 9.748 52.7894 10.0607 53.34 10.686C53.9 11.3113 54.18 12.226 54.18 13.43C54.18 13.9993 54.1054 14.5127 53.956 14.97C53.8067 15.4273 53.592 15.8147 53.312 16.132C53.032 16.4493 52.6914 16.692 52.29 16.86C51.898 17.028 51.45 17.112 50.946 17.112Z" fill="#A9A8A8"/>
<path d="M75.2619 17H74.2539V7.048L72.1739 8.376L71.6619 7.624L74.4619 5.8H75.2619V17ZM86.4736 17H79.6096V16.008L81.8336 13.944C82.3563 13.464 82.8256 13.016 83.2416 12.6C83.6576 12.1733 84.015 11.7627 84.3136 11.368C84.6123 10.9733 84.8416 10.584 85.0016 10.2C85.1616 9.80533 85.2416 9.4 85.2416 8.984C85.2416 8.55733 85.1723 8.19467 85.0336 7.896C84.9056 7.59733 84.7243 7.35733 84.4896 7.176C84.255 6.984 83.983 6.84533 83.6736 6.76C83.3643 6.67467 83.0283 6.632 82.6656 6.632C82.1216 6.632 81.631 6.70667 81.1936 6.856C80.767 6.99467 80.383 7.17067 80.0416 7.384V6.296C80.5536 6.05067 81.0496 5.88 81.5296 5.784C82.0096 5.688 82.4363 5.64 82.8096 5.64C83.3003 5.64 83.759 5.704 84.1856 5.832C84.623 5.96 84.9963 6.152 85.3056 6.408C85.615 6.664 85.8603 6.98933 86.0416 7.384C86.223 7.77867 86.3136 8.23733 86.3136 8.76C86.3136 9.34667 86.2016 9.90133 85.9776 10.424C85.7643 10.936 85.4603 11.4427 85.0656 11.944C84.6816 12.4347 84.223 12.9307 83.6896 13.432C83.1563 13.9333 82.575 14.456 81.9456 15L80.8256 16.04V16.056H86.4736V17ZM94.1398 9.512C94.1398 9.75733 94.0651 9.95467 93.9158 10.104C93.7771 10.2427 93.5798 10.312 93.3238 10.312C93.0784 10.312 92.8811 10.2427 92.7318 10.104C92.5931 9.95467 92.5238 9.75733 92.5238 9.512C92.5238 9.26667 92.5931 9.07467 92.7318 8.936C92.8811 8.79733 93.0784 8.728 93.3238 8.728C93.5691 8.728 93.7664 8.79733 93.9158 8.936C94.0651 9.07467 94.1398 9.26667 94.1398 9.512ZM94.1398 16.344C94.1398 16.5893 94.0651 16.7867 93.9158 16.936C93.7771 17.0747 93.5798 17.144 93.3238 17.144C93.0784 17.144 92.8811 17.0747 92.7318 16.936C92.5931 16.7867 92.5238 16.5893 92.5238 16.344C92.5238 16.0987 92.5931 15.9067 92.7318 15.768C92.8811 15.6293 93.0784 15.56 93.3238 15.56C93.5691 15.56 93.7664 15.6293 93.9158 15.768C94.0651 15.9067 94.1398 16.0987 94.1398 16.344ZM103.647 16.216C104.084 16.216 104.474 16.1307 104.815 15.96C105.156 15.7787 105.439 15.496 105.663 15.112C105.898 14.728 106.074 14.232 106.191 13.624C106.319 13.016 106.383 12.2747 106.383 11.4C106.383 10.5147 106.319 9.768 106.191 9.16C106.074 8.54133 105.892 8.04533 105.647 7.672C105.412 7.288 105.114 7.01067 104.751 6.84C104.399 6.66933 103.988 6.584 103.519 6.584C103.092 6.584 102.708 6.66933 102.367 6.84C102.026 7.01067 101.732 7.288 101.487 7.672C101.252 8.04533 101.071 8.54133 100.943 9.16C100.815 9.768 100.751 10.5147 100.751 11.4C100.751 12.2853 100.815 13.032 100.943 13.64C101.071 14.248 101.258 14.744 101.503 15.128C101.748 15.512 102.047 15.7893 102.399 15.96C102.762 16.1307 103.178 16.216 103.647 16.216ZM103.567 17.16C102.33 17.16 101.37 16.7013 100.687 15.784C100.004 14.856 99.6631 13.3947 99.6631 11.4C99.6631 10.3973 99.7538 9.53333 99.9351 8.808C100.116 8.08267 100.372 7.48533 100.703 7.016C101.044 6.54667 101.45 6.2 101.919 5.976C102.399 5.752 102.938 5.64 103.535 5.64C104.858 5.64 105.839 6.09867 106.479 7.016C107.13 7.93333 107.455 9.39467 107.455 11.4C107.455 12.4347 107.364 13.3147 107.183 14.04C107.012 14.7653 106.762 15.3627 106.431 15.832C106.1 16.2907 105.69 16.6267 105.199 16.84C104.719 17.0533 104.175 17.16 103.567 17.16ZM112.491 16.216C112.928 16.216 113.318 16.1307 113.659 15.96C114 15.7787 114.283 15.496 114.507 15.112C114.742 14.728 114.918 14.232 115.035 13.624C115.163 13.016 115.227 12.2747 115.227 11.4C115.227 10.5147 115.163 9.768 115.035 9.16C114.918 8.54133 114.736 8.04533 114.491 7.672C114.256 7.288 113.958 7.01067 113.595 6.84C113.243 6.66933 112.832 6.584 112.363 6.584C111.936 6.584 111.552 6.66933 111.211 6.84C110.87 7.01067 110.576 7.288 110.331 7.672C110.096 8.04533 109.915 8.54133 109.787 9.16C109.659 9.768 109.595 10.5147 109.595 11.4C109.595 12.2853 109.659 13.032 109.787 13.64C109.915 14.248 110.102 14.744 110.347 15.128C110.592 15.512 110.891 15.7893 111.243 15.96C111.606 16.1307 112.022 16.216 112.491 16.216ZM112.411 17.16C111.174 17.16 110.214 16.7013 109.531 15.784C108.848 14.856 108.507 13.3947 108.507 11.4C108.507 10.3973 108.598 9.53333 108.779 8.808C108.96 8.08267 109.216 7.48533 109.547 7.016C109.888 6.54667 110.294 6.2 110.763 5.976C111.243 5.752 111.782 5.64 112.379 5.64C113.702 5.64 114.683 6.09867 115.323 7.016C115.974 7.93333 116.299 9.39467 116.299 11.4C116.299 12.4347 116.208 13.3147 116.027 14.04C115.856 14.7653 115.606 15.3627 115.275 15.832C114.944 16.2907 114.534 16.6267 114.043 16.84C113.563 17.0533 113.019 17.16 112.411 17.16Z" fill="#2B2A29"/>
</svg>
