<svg width="127" height="23" viewBox="0 0 127 23" fill="none" xmlns="http://www.w3.org/2000/svg">
<rect width="127" height="23" rx="8" fill="#FFFEFE"/>
<path d="M14.0619 13.066H14.8179L17.6179 9.86H18.6119L15.6439 13.164C15.7932 13.2107 15.9239 13.2807 16.0359 13.374C16.1572 13.458 16.2972 13.598 16.4559 13.794L18.9619 17H18.0099L15.8259 14.144C15.6952 13.9667 15.5692 13.8547 15.4479 13.808C15.3266 13.7613 15.1726 13.738 14.9859 13.738H14.0619V17H13.2219V9.86H14.0619V13.066ZM22.8308 16.356C23.5681 16.356 24.1421 16.1133 24.5528 15.628C24.9635 15.1427 25.1688 14.41 25.1688 13.43C25.1688 12.478 24.9821 11.7547 24.6088 11.26C24.2448 10.756 23.6521 10.504 22.8308 10.504C22.1028 10.504 21.5288 10.7467 21.1088 11.232C20.6981 11.7173 20.4928 12.45 20.4928 13.43C20.4928 14.438 20.7075 15.18 21.1368 15.656C21.5661 16.1227 22.1308 16.356 22.8308 16.356ZM22.8308 17.112C21.7855 17.112 20.9828 16.7993 20.4228 16.174C19.8721 15.5393 19.5968 14.6247 19.5968 13.43C19.5968 12.2727 19.8815 11.372 20.4508 10.728C21.0201 10.0747 21.8135 9.748 22.8308 9.748C23.8761 9.748 24.6741 10.0607 25.2248 10.686C25.7848 11.3113 26.0648 12.226 26.0648 13.43C26.0648 13.9993 25.9901 14.5127 25.8408 14.97C25.6915 15.4273 25.4768 15.8147 25.1968 16.132C24.9168 16.4493 24.5761 16.692 24.1748 16.86C23.7828 17.028 23.3348 17.112 22.8308 17.112ZM33.6172 17H32.7912V13.696H28.7592V17H27.9192V9.86H28.7592V12.94H32.7912V9.86H33.6172V17ZM41.0699 16.552C40.5845 16.9253 39.8845 17.112 38.9699 17.112C37.7845 17.112 36.9025 16.7853 36.3239 16.132C35.7545 15.4787 35.4699 14.564 35.4699 13.388C35.4699 12.828 35.5399 12.324 35.6799 11.876C35.8199 11.428 36.0205 11.05 36.2819 10.742C36.5525 10.4247 36.8745 10.182 37.2479 10.014C37.6305 9.83667 38.0599 9.748 38.5359 9.748C39.0959 9.748 39.5625 9.84133 39.9359 10.028C40.3185 10.2147 40.6219 10.4713 40.8459 10.798C41.0792 11.1153 41.2472 11.4887 41.3499 11.918C41.4525 12.3473 41.5039 12.8047 41.5039 13.29V13.598H36.3379C36.3659 14.0087 36.4312 14.382 36.5339 14.718C36.6459 15.054 36.8092 15.3433 37.0239 15.586C37.2385 15.8287 37.5092 16.02 37.8359 16.16C38.1625 16.2907 38.5592 16.356 39.0259 16.356C39.4552 16.356 39.8099 16.314 40.0899 16.23C40.3792 16.146 40.6312 16.0387 40.8459 15.908L41.0699 16.552ZM40.6219 12.898C40.6219 12.6087 40.5892 12.324 40.5239 12.044C40.4585 11.7547 40.3465 11.498 40.1879 11.274C40.0292 11.0407 39.8192 10.854 39.5579 10.714C39.2965 10.5647 38.9699 10.49 38.5779 10.49C37.8872 10.49 37.3552 10.7093 36.9819 11.148C36.6085 11.5867 36.3985 12.17 36.3519 12.898H40.6219ZM49.796 19.016H48.998V17H43.3V9.86H44.14V16.244H47.934V9.86H48.774V16.244H49.796V19.016ZM72.4714 16.216C72.9087 16.216 73.298 16.1307 73.6394 15.96C73.9807 15.7787 74.2634 15.496 74.4874 15.112C74.722 14.728 74.898 14.232 75.0154 13.624C75.1434 13.016 75.2074 12.2747 75.2074 11.4C75.2074 10.5147 75.1434 9.768 75.0154 9.16C74.898 8.54133 74.7167 8.04533 74.4714 7.672C74.2367 7.288 73.938 7.01067 73.5754 6.84C73.2234 6.66933 72.8127 6.584 72.3434 6.584C71.9167 6.584 71.5327 6.66933 71.1914 6.84C70.85 7.01067 70.5567 7.288 70.3114 7.672C70.0767 8.04533 69.8954 8.54133 69.7674 9.16C69.6394 9.768 69.5754 10.5147 69.5754 11.4C69.5754 12.2853 69.6394 13.032 69.7674 13.64C69.8954 14.248 70.082 14.744 70.3274 15.128C70.5727 15.512 70.8714 15.7893 71.2234 15.96C71.586 16.1307 72.002 16.216 72.4714 16.216ZM72.3914 17.16C71.154 17.16 70.194 16.7013 69.5114 15.784C68.8287 14.856 68.4874 13.3947 68.4874 11.4C68.4874 10.3973 68.578 9.53333 68.7594 8.808C68.9407 8.08267 69.1967 7.48533 69.5274 7.016C69.8687 6.54667 70.274 6.2 70.7434 5.976C71.2234 5.752 71.762 5.64 72.3594 5.64C73.682 5.64 74.6634 6.09867 75.3034 7.016C75.954 7.93333 76.2794 9.39467 76.2794 11.4C76.2794 12.4347 76.1887 13.3147 76.0074 14.04C75.8367 14.7653 75.586 15.3627 75.2554 15.832C74.9247 16.2907 74.514 16.6267 74.0234 16.84C73.5434 17.0533 72.9994 17.16 72.3914 17.16ZM81.3151 16.216C81.7524 16.216 82.1418 16.1307 82.4831 15.96C82.8244 15.7787 83.1071 15.496 83.3311 15.112C83.5658 14.728 83.7418 14.232 83.8591 13.624C83.9871 13.016 84.0511 12.2747 84.0511 11.4C84.0511 10.5147 83.9871 9.768 83.8591 9.16C83.7418 8.54133 83.5604 8.04533 83.3151 7.672C83.0804 7.288 82.7818 7.01067 82.4191 6.84C82.0671 6.66933 81.6564 6.584 81.1871 6.584C80.7604 6.584 80.3764 6.66933 80.0351 6.84C79.6938 7.01067 79.4004 7.288 79.1551 7.672C78.9204 8.04533 78.7391 8.54133 78.6111 9.16C78.4831 9.768 78.4191 10.5147 78.4191 11.4C78.4191 12.2853 78.4831 13.032 78.6111 13.64C78.7391 14.248 78.9258 14.744 79.1711 15.128C79.4164 15.512 79.7151 15.7893 80.0671 15.96C80.4298 16.1307 80.8458 16.216 81.3151 16.216ZM81.2351 17.16C79.9978 17.16 79.0378 16.7013 78.3551 15.784C77.6724 14.856 77.3311 13.3947 77.3311 11.4C77.3311 10.3973 77.4218 9.53333 77.6031 8.808C77.7844 8.08267 78.0404 7.48533 78.3711 7.016C78.7124 6.54667 79.1178 6.2 79.5871 5.976C80.0671 5.752 80.6058 5.64 81.2031 5.64C82.5258 5.64 83.5071 6.09867 84.1471 7.016C84.7978 7.93333 85.1231 9.39467 85.1231 11.4C85.1231 12.4347 85.0324 13.3147 84.8511 14.04C84.6804 14.7653 84.4298 15.3627 84.0991 15.832C83.7684 16.2907 83.3578 16.6267 82.8671 16.84C82.3871 17.0533 81.8431 17.16 81.2351 17.16ZM92.2452 9.512C92.2452 9.75733 92.1706 9.95467 92.0212 10.104C91.8826 10.2427 91.6852 10.312 91.4292 10.312C91.1839 10.312 90.9866 10.2427 90.8372 10.104C90.6986 9.95467 90.6292 9.75733 90.6292 9.512C90.6292 9.26667 90.6986 9.07467 90.8372 8.936C90.9866 8.79733 91.1839 8.728 91.4292 8.728C91.6746 8.728 91.8719 8.79733 92.0212 8.936C92.1706 9.07467 92.2452 9.26667 92.2452 9.512ZM92.2452 16.344C92.2452 16.5893 92.1706 16.7867 92.0212 16.936C91.8826 17.0747 91.6852 17.144 91.4292 17.144C91.1839 17.144 90.9866 17.0747 90.8372 16.936C90.6986 16.7867 90.6292 16.5893 90.6292 16.344C90.6292 16.0987 90.6986 15.9067 90.8372 15.768C90.9866 15.6293 91.1839 15.56 91.4292 15.56C91.6746 15.56 91.8719 15.6293 92.0212 15.768C92.1706 15.9067 92.2452 16.0987 92.2452 16.344ZM101.753 16.216C102.19 16.216 102.579 16.1307 102.921 15.96C103.262 15.7787 103.545 15.496 103.769 15.112C104.003 14.728 104.179 14.232 104.297 13.624C104.425 13.016 104.489 12.2747 104.489 11.4C104.489 10.5147 104.425 9.768 104.297 9.16C104.179 8.54133 103.998 8.04533 103.753 7.672C103.518 7.288 103.219 7.01067 102.857 6.84C102.505 6.66933 102.094 6.584 101.625 6.584C101.198 6.584 100.814 6.66933 100.473 6.84C100.131 7.01067 99.8379 7.288 99.5926 7.672C99.3579 8.04533 99.1766 8.54133 99.0486 9.16C98.9206 9.768 98.8566 10.5147 98.8566 11.4C98.8566 12.2853 98.9206 13.032 99.0486 13.64C99.1766 14.248 99.3633 14.744 99.6086 15.128C99.8539 15.512 100.153 15.7893 100.505 15.96C100.867 16.1307 101.283 16.216 101.753 16.216ZM101.673 17.16C100.435 17.16 99.4753 16.7013 98.7926 15.784C98.1099 14.856 97.7686 13.3947 97.7686 11.4C97.7686 10.3973 97.8593 9.53333 98.0406 8.808C98.2219 8.08267 98.4779 7.48533 98.8086 7.016C99.1499 6.54667 99.5553 6.2 100.025 5.976C100.505 5.752 101.043 5.64 101.641 5.64C102.963 5.64 103.945 6.09867 104.585 7.016C105.235 7.93333 105.561 9.39467 105.561 11.4C105.561 12.4347 105.47 13.3147 105.289 14.04C105.118 14.7653 104.867 15.3627 104.537 15.832C104.206 16.2907 103.795 16.6267 103.305 16.84C102.825 17.0533 102.281 17.16 101.673 17.16ZM110.596 16.216C111.034 16.216 111.423 16.1307 111.764 15.96C112.106 15.7787 112.388 15.496 112.612 15.112C112.847 14.728 113.023 14.232 113.14 13.624C113.268 13.016 113.332 12.2747 113.332 11.4C113.332 10.5147 113.268 9.768 113.14 9.16C113.023 8.54133 112.842 8.04533 112.596 7.672C112.362 7.288 112.063 7.01067 111.7 6.84C111.348 6.66933 110.938 6.584 110.468 6.584C110.042 6.584 109.658 6.66933 109.316 6.84C108.975 7.01067 108.682 7.288 108.436 7.672C108.202 8.04533 108.02 8.54133 107.892 9.16C107.764 9.768 107.7 10.5147 107.7 11.4C107.7 12.2853 107.764 13.032 107.892 13.64C108.02 14.248 108.207 14.744 108.452 15.128C108.698 15.512 108.996 15.7893 109.348 15.96C109.711 16.1307 110.127 16.216 110.596 16.216ZM110.516 17.16C109.279 17.16 108.319 16.7013 107.636 15.784C106.954 14.856 106.612 13.3947 106.612 11.4C106.612 10.3973 106.703 9.53333 106.884 8.808C107.066 8.08267 107.322 7.48533 107.652 7.016C107.994 6.54667 108.399 6.2 108.868 5.976C109.348 5.752 109.887 5.64 110.484 5.64C111.807 5.64 112.788 6.09867 113.428 7.016C114.079 7.93333 114.404 9.39467 114.404 11.4C114.404 12.4347 114.314 13.3147 114.132 14.04C113.962 14.7653 113.711 15.3627 113.38 15.832C113.05 16.2907 112.639 16.6267 112.148 16.84C111.668 17.0533 111.124 17.16 110.516 17.16Z" fill="#A9A8A8"/>
</svg>
