<svg width="21" height="21" viewBox="0 0 21 21" fill="none" xmlns="http://www.w3.org/2000/svg">
<path d="M11.55 10.6838L13.9125 13.0462C14.105 13.2387 14.2013 13.4794 14.2013 13.7681C14.2013 14.0569 14.105 14.3062 13.9125 14.5162C13.7025 14.7262 13.4531 14.8312 13.1644 14.8312C12.8756 14.8312 12.6262 14.7262 12.4162 14.5162L9.765 11.865C9.66 11.76 9.58125 11.6419 9.52875 11.5106C9.47625 11.3794 9.45 11.2437 9.45 11.1037V7.35C9.45 7.0525 9.55062 6.80312 9.75187 6.60187C9.95312 6.40062 10.2025 6.3 10.5 6.3C10.7975 6.3 11.0469 6.40062 11.2481 6.60187C11.4494 6.80312 11.55 7.0525 11.55 7.35V10.6838ZM10.5 4.2C10.2025 4.2 9.95312 4.09937 9.75187 3.89812C9.55062 3.69687 9.45 3.4475 9.45 3.15V2.1H11.55V3.15C11.55 3.4475 11.4494 3.69687 11.2481 3.89812C11.0469 4.09937 10.7975 4.2 10.5 4.2ZM16.8 10.5C16.8 10.2025 16.9006 9.95312 17.1019 9.75187C17.3031 9.55062 17.5525 9.45 17.85 9.45H18.9V11.55H17.85C17.5525 11.55 17.3031 11.4494 17.1019 11.2481C16.9006 11.0469 16.8 10.7975 16.8 10.5ZM10.5 16.8C10.7975 16.8 11.0469 16.9006 11.2481 17.1019C11.4494 17.3031 11.55 17.5525 11.55 17.85V18.9H9.45V17.85C9.45 17.5525 9.55062 17.3031 9.75187 17.1019C9.95312 16.9006 10.2025 16.8 10.5 16.8ZM4.2 10.5C4.2 10.7975 4.09937 11.0469 3.89812 11.2481C3.69687 11.4494 3.4475 11.55 3.15 11.55H2.1V9.45H3.15C3.4475 9.45 3.69687 9.55062 3.89812 9.75187C4.09937 9.95312 4.2 10.2025 4.2 10.5ZM10.5 21C9.0475 21 7.6825 20.7244 6.405 20.1731C5.1275 19.6219 4.01625 18.8738 3.07125 17.9287C2.12625 16.9837 1.37812 15.8725 0.826875 14.595C0.275625 13.3175 0 11.9525 0 10.5C0 9.0475 0.275625 7.6825 0.826875 6.405C1.37812 5.1275 2.12625 4.01625 3.07125 3.07125C4.01625 2.12625 5.1275 1.37812 6.405 0.826875C7.6825 0.275625 9.0475 0 10.5 0C11.9525 0 13.3175 0.275625 14.595 0.826875C15.8725 1.37812 16.9837 2.12625 17.9287 3.07125C18.8738 4.01625 19.6219 5.1275 20.1731 6.405C20.7244 7.6825 21 9.0475 21 10.5C21 11.9525 20.7244 13.3175 20.1731 14.595C19.6219 15.8725 18.8738 16.9837 17.9287 17.9287C16.9837 18.8738 15.8725 19.6219 14.595 20.1731C13.3175 20.7244 11.9525 21 10.5 21ZM18.9 10.5C18.9 8.155 18.0863 6.16875 16.4587 4.54125C14.8312 2.91375 12.845 2.1 10.5 2.1C8.155 2.1 6.16875 2.91375 4.54125 4.54125C2.91375 6.16875 2.1 8.155 2.1 10.5C2.1 12.845 2.91375 14.8312 4.54125 16.4587C6.16875 18.0863 8.155 18.9 10.5 18.9C12.845 18.9 14.8312 18.0863 16.4587 16.4587C18.0863 14.8312 18.9 12.845 18.9 10.5Z" fill="#025EA1"/>
</svg>
