<svg width="11" height="11" viewBox="0 0 11 11" fill="none" xmlns="http://www.w3.org/2000/svg">
<path d="M5.5 11C4.74779 11 4.03821 10.8553 3.36822 10.5676C2.69975 10.2782 2.11503 9.88538 1.61559 9.38441C1.11614 8.88497 0.721761 8.30025 0.432447 7.63178C0.143134 6.96332 0 6.25221 0 5.5C0 4.73865 0.144657 4.0245 0.432447 3.35451C0.721761 2.68605 1.11462 2.10285 1.61559 1.60797C2.11503 1.1131 2.69975 0.721761 3.36822 0.432447C4.03668 0.143134 4.74779 0 5.5 0C6.26135 0 6.9755 0.144657 7.64549 0.432447C8.31395 0.721761 8.89715 1.1131 9.39203 1.60797C9.8869 2.10285 10.2782 2.68452 10.5676 3.35451C10.8569 4.0245 11 4.73865 11 5.5C11 6.25221 10.8553 6.96179 10.5676 7.63178C10.2782 8.30025 9.8869 8.88497 9.39203 9.38441C8.89715 9.88386 8.31548 10.2782 7.64549 10.5676C6.9755 10.8569 6.26135 11 5.5 11ZM5.5 6.0771L7.27395 7.85105C7.35617 7.93328 7.4521 7.97439 7.56326 7.97439C7.6729 7.97439 7.76883 7.93328 7.85257 7.85105C7.9348 7.76883 7.97591 7.6729 7.97591 7.56174C7.97591 7.4521 7.9348 7.35617 7.85257 7.27243L6.07863 5.49848L7.85257 3.72453C7.9348 3.6423 7.97591 3.54637 7.97591 3.43522C7.97591 3.32558 7.9348 3.22965 7.85257 3.1459C7.77035 3.06368 7.67442 3.02256 7.56326 3.02256C7.45363 3.02256 7.3577 3.06368 7.27395 3.1459L5.5 4.91985L3.72605 3.1459C3.64383 3.06368 3.5479 3.02256 3.43674 3.02256C3.3271 3.02256 3.23117 3.06368 3.14743 3.1459C3.0652 3.22813 3.02409 3.32406 3.02409 3.43522C3.02409 3.54485 3.0652 3.64078 3.14743 3.72453L4.92137 5.49848L3.14743 7.27243C3.0652 7.35465 3.02409 7.45058 3.02409 7.56174C3.02409 7.67137 3.0652 7.7673 3.14743 7.85105C3.22965 7.93328 3.32558 7.97439 3.43674 7.97439C3.54637 7.97439 3.6423 7.93328 3.72605 7.85105L5.5 6.0771Z" fill="#D7D4D4"/>
</svg>
