<svg width="22" height="22" viewBox="0 0 22 22" fill="none" xmlns="http://www.w3.org/2000/svg">
<path d="M1.22222 22C0.875926 22 0.585648 21.8829 0.351389 21.6486C0.11713 21.4144 0 21.1241 0 20.7778C0 20.4315 0.11713 20.1412 0.351389 19.9069C0.585648 19.6727 0.875926 19.5556 1.22222 19.5556H2.44444V1.22222C2.44444 0.875926 2.56157 0.585648 2.79583 0.351389C3.03009 0.11713 3.32037 0 3.66667 0H13.4444C13.7907 0 14.081 0.11713 14.3153 0.351389C14.5495 0.585648 14.6667 0.875926 14.6667 1.22222H18.3333C18.6796 1.22222 18.9699 1.33935 19.2042 1.57361C19.4384 1.80787 19.5556 2.09815 19.5556 2.44444V19.5556H20.7778C21.1241 19.5556 21.4144 19.6727 21.6486 19.9069C21.8829 20.1412 22 20.4315 22 20.7778C22 21.1241 21.8829 21.4144 21.6486 21.6486C21.4144 21.8829 21.1241 22 20.7778 22H18.3333C17.987 22 17.6968 21.8829 17.4625 21.6486C17.2282 21.4144 17.1111 21.1241 17.1111 20.7778V3.66667H14.6667V20.7778C14.6667 21.1241 14.5495 21.4144 14.3153 21.6486C14.081 21.8829 13.7907 22 13.4444 22H1.22222ZM11 11C11 10.6537 10.8829 10.3634 10.6486 10.1292C10.4144 9.89491 10.1241 9.77778 9.77778 9.77778C9.43148 9.77778 9.1412 9.89491 8.90694 10.1292C8.67268 10.3634 8.55556 10.6537 8.55556 11C8.55556 11.3463 8.67268 11.6366 8.90694 11.8708C9.1412 12.1051 9.43148 12.2222 9.77778 12.2222C10.1241 12.2222 10.4144 12.1051 10.6486 11.8708C10.8829 11.6366 11 11.3463 11 11ZM4.88889 19.5556H12.2222V2.44444H4.88889V19.5556Z" fill="#025EA1"/>
</svg>
