<svg width="17" height="16" viewBox="0 0 17 16" fill="none" xmlns="http://www.w3.org/2000/svg">
<path d="M7.90976 9.24084H9.45143C9.66983 9.24084 9.8529 9.16697 10.0006 9.01923C10.1484 8.87149 10.2223 8.68841 10.2223 8.47001C10.2223 8.25161 10.1484 8.06854 10.0006 7.92079C9.8529 7.77305 9.66983 7.69918 9.45143 7.69918H7.90976C7.69136 7.69918 7.50828 7.77305 7.36054 7.92079C7.2128 8.06854 7.13893 8.25161 7.13893 8.47001C7.13893 8.68841 7.2128 8.87149 7.36054 9.01923C7.50828 9.16697 7.69136 9.24084 7.90976 9.24084ZM7.90976 6.92835H12.5348C12.7532 6.92835 12.9362 6.85447 13.084 6.70673C13.2317 6.55899 13.3056 6.37591 13.3056 6.15751C13.3056 5.93911 13.2317 5.75604 13.084 5.60829C12.9362 5.46055 12.7532 5.38668 12.5348 5.38668H7.90976C7.69136 5.38668 7.50828 5.46055 7.36054 5.60829C7.2128 5.75604 7.13893 5.93911 7.13893 6.15751C7.13893 6.37591 7.2128 6.55899 7.36054 6.70673C7.50828 6.85447 7.69136 6.92835 7.90976 6.92835ZM7.90976 4.61584H12.5348C12.7532 4.61584 12.9362 4.54197 13.084 4.39423C13.2317 4.24649 13.3056 4.06341 13.3056 3.84501C13.3056 3.62661 13.2317 3.44354 13.084 3.29579C12.9362 3.14805 12.7532 3.07418 12.5348 3.07418H7.90976C7.69136 3.07418 7.50828 3.14805 7.36054 3.29579C7.2128 3.44354 7.13893 3.62661 7.13893 3.84501C7.13893 4.06341 7.2128 4.24649 7.36054 4.39423C7.50828 4.54197 7.69136 4.61584 7.90976 4.61584ZM5.59726 12.3242C5.1733 12.3242 4.81037 12.1732 4.50846 11.8713C4.20655 11.5694 4.05559 11.2065 4.05559 10.7825V1.53251C4.05559 1.10855 4.20655 0.745619 4.50846 0.443709C4.81037 0.1418 5.1733 -0.00915527 5.59726 -0.00915527H14.8473C15.2712 -0.00915527 15.6342 0.1418 15.9361 0.443709C16.238 0.745619 16.3889 1.10855 16.3889 1.53251V10.7825C16.3889 11.2065 16.238 11.5694 15.9361 11.8713C15.6342 12.1732 15.2712 12.3242 14.8473 12.3242H5.59726ZM5.59726 10.7825H14.8473V1.53251H5.59726V10.7825ZM2.51393 15.4075C2.08997 15.4075 1.72703 15.2566 1.42512 14.9546C1.12321 14.6527 0.97226 14.2898 0.97226 13.8658V3.84501C0.97226 3.62661 1.04613 3.44354 1.19387 3.29579C1.34162 3.14805 1.52469 3.07418 1.74309 3.07418C1.9615 3.07418 2.14457 3.14805 2.29231 3.29579C2.44005 3.44354 2.51393 3.62661 2.51393 3.84501V13.8658H12.5348C12.7532 13.8658 12.9362 13.9397 13.084 14.0875C13.2317 14.2352 13.3056 14.4183 13.3056 14.6367C13.3056 14.8551 13.2317 15.0382 13.084 15.1859C12.9362 15.3336 12.7532 15.4075 12.5348 15.4075H2.51393Z" fill="#9D9E9E"/>
</svg>
