<svg width="16" height="16" viewBox="0 0 16 16" fill="none" xmlns="http://www.w3.org/2000/svg">
<path d="M3.98612 11.9816H7.41205V8.55566H3.98612V11.9816ZM9.12501 11.9816H12.5509V8.55566H9.12501V11.9816ZM3.98612 6.8427H7.41205V3.41677H3.98612V6.8427ZM9.12501 6.8427H12.5509V3.41677H9.12501V6.8427ZM2.27316 15.4075C1.80209 15.4075 1.39883 15.2398 1.06338 14.9043C0.727922 14.5689 0.560194 14.1656 0.560194 13.6945V1.70381C0.560194 1.23274 0.727922 0.829483 1.06338 0.494028C1.39883 0.158572 1.80209 -0.00915527 2.27316 -0.00915527H14.2639C14.735 -0.00915527 15.1382 0.158572 15.4737 0.494028C15.8091 0.829483 15.9769 1.23274 15.9769 1.70381V13.6945C15.9769 14.1656 15.8091 14.5689 15.4737 14.9043C15.1382 15.2398 14.735 15.4075 14.2639 15.4075H2.27316ZM2.27316 13.6945H14.2639V1.70381H2.27316V13.6945Z" fill="#9D9E9E"/>
</svg>
