<svg width="16" height="16" viewBox="0 0 16 16" fill="none" xmlns="http://www.w3.org/2000/svg">
<path d="M1.63958 15.4075C1.18615 15.4075 0.797983 15.2398 0.475085 14.9043C0.152187 14.5689 -0.00926208 14.1656 -0.00926208 13.6945V1.70381C-0.00926208 1.23274 0.152187 0.829483 0.475085 0.494028C0.797983 0.158572 1.18615 -0.00915527 1.63958 -0.00915527H11.9242C12.1578 -0.00915527 12.3536 0.0729242 12.5116 0.237083C12.6696 0.401242 12.7486 0.604656 12.7486 0.847326C12.7486 1.09 12.6696 1.29341 12.5116 1.45757C12.3536 1.62173 12.1578 1.70381 11.9242 1.70381H1.63958V13.6945H13.1815V8.12742C13.1815 7.88475 13.2605 7.68133 13.4185 7.51718C13.5765 7.35302 13.7723 7.27094 14.0059 7.27094C14.2395 7.27094 14.4353 7.35302 14.5933 7.51718C14.7513 7.68133 14.8303 7.88475 14.8303 8.12742V13.6945C14.8303 14.1656 14.6689 14.5689 14.346 14.9043C14.0231 15.2398 13.6349 15.4075 13.1815 15.4075H1.63958ZM7.01892 9.58344L14.0265 2.30334C14.1776 2.14632 14.3631 2.06781 14.583 2.06781C14.8028 2.06781 14.9952 2.14632 15.1601 2.30334C15.325 2.46037 15.4074 2.66021 15.4074 2.90288C15.4074 3.14555 15.325 3.35253 15.1601 3.52383L7.59602 11.382C7.43113 11.5533 7.23877 11.639 7.01892 11.639C6.79908 11.639 6.60671 11.5533 6.44183 11.382L2.93804 7.742C2.7869 7.58498 2.71133 7.38514 2.71133 7.14247C2.71133 6.8998 2.7869 6.69995 2.93804 6.54293C3.08919 6.38591 3.28155 6.3074 3.51514 6.3074C3.74872 6.3074 3.94109 6.38591 4.09223 6.54293L7.01892 9.58344Z" fill="#025EA1"/>
</svg>
