<svg width="21" height="14" viewBox="0 0 21 14" fill="none" xmlns="http://www.w3.org/2000/svg">
<path d="M1.19488 14C0.85633 14 0.572546 13.8882 0.343528 13.6646C0.114509 13.441 0 13.1639 0 12.8333C0 12.5028 0.114509 12.2257 0.343528 12.0021C0.572546 11.7785 0.85633 11.6667 1.19488 11.6667H14.3385C14.6771 11.6667 14.9609 11.7785 15.1899 12.0021C15.4189 12.2257 15.5334 12.5028 15.5334 12.8333C15.5334 13.1639 15.4189 13.441 15.1899 13.6646C14.9609 13.8882 14.6771 14 14.3385 14H1.19488ZM18.9986 12.0167L14.697 7.81667C14.458 7.58333 14.3385 7.31111 14.3385 7C14.3385 6.68889 14.458 6.41667 14.697 6.18333L18.9986 1.98333C19.2176 1.76944 19.4964 1.6625 19.835 1.6625C20.1735 1.6625 20.4523 1.76944 20.6714 1.98333C20.8905 2.19722 21 2.46944 21 2.8C21 3.13056 20.8905 3.40278 20.6714 3.61667L17.2063 7L20.6714 10.3833C20.8905 10.5972 21 10.8694 21 11.2C21 11.5306 20.8905 11.8028 20.6714 12.0167C20.4523 12.2306 20.1735 12.3375 19.835 12.3375C19.4964 12.3375 19.2176 12.2306 18.9986 12.0167ZM1.19488 8.16667C0.85633 8.16667 0.572546 8.05486 0.343528 7.83125C0.114509 7.60764 0 7.33056 0 7C0 6.66944 0.114509 6.39236 0.343528 6.16875C0.572546 5.94514 0.85633 5.83333 1.19488 5.83333H10.7539C11.0925 5.83333 11.3762 5.94514 11.6053 6.16875C11.8343 6.39236 11.9488 6.66944 11.9488 7C11.9488 7.33056 11.8343 7.60764 11.6053 7.83125C11.3762 8.05486 11.0925 8.16667 10.7539 8.16667H1.19488ZM1.19488 2.33333C0.85633 2.33333 0.572546 2.22153 0.343528 1.99792C0.114509 1.77431 0 1.49722 0 1.16667C0 0.836111 0.114509 0.559028 0.343528 0.335417C0.572546 0.111806 0.85633 0 1.19488 0H14.3385C14.6771 0 14.9609 0.111806 15.1899 0.335417C15.4189 0.559028 15.5334 0.836111 15.5334 1.16667C15.5334 1.49722 15.4189 1.77431 15.1899 1.99792C14.9609 2.22153 14.6771 2.33333 14.3385 2.33333H1.19488Z" fill="#025EA1"/>
</svg>
